<svg xmlns="http://www.w3.org/2000/svg" xmlns:xlink="http://www.w3.org/1999/xlink" width="500" zoomAndPan="magnify" viewBox="0 0 375 374.999991" height="500" preserveAspectRatio="xMidYMid meet" version="1.0"><defs><clipPath id="c09b3fae16"><path d="M 52.410156 29 L 322.410156 29 L 322.410156 358 L 52.410156 358 Z M 52.410156 29 " clip-rule="nonzero"/></clipPath></defs><g clip-path="url(#c09b3fae16)"><path fill="#000000" d="M 115.265625 90.261719 L 183.039062 108.296875 L 171.285156 152.84375 C 157.894531 152.023438 146.417969 155.027344 136.03125 157.761719 C 131.386719 159.128906 127.015625 160.21875 122.914062 160.765625 C 116.628906 161.859375 111.4375 161.585938 107.066406 159.949219 C 103.511719 158.855469 100.507812 156.667969 98.046875 154.207031 Z M 250.265625 59.925781 L 229.222656 77.691406 C 226.488281 79.875 226.214844 83.976562 228.402344 86.433594 C 230.585938 89.167969 234.414062 89.441406 237.144531 87.253906 L 258.1875 69.492188 C 260.921875 67.304688 261.195312 63.480469 259.007812 60.746094 C 256.824219 58.015625 252.996094 57.742188 250.265625 59.925781 Z M 204.351562 33.691406 L 197.246094 60.472656 C 196.15625 63.753906 198.339844 67.03125 201.621094 68.125 C 204.898438 68.945312 208.453125 67.03125 209.273438 63.753906 L 216.378906 36.972656 C 217.195312 33.691406 215.285156 30.140625 212.003906 29.320312 C 208.726562 28.5 205.171875 30.414062 204.351562 33.691406 Z M 151.609375 41.070312 L 161.175781 67.03125 C 162.269531 70.039062 165.820312 71.953125 169.101562 70.585938 C 172.378906 69.492188 174.019531 65.9375 172.925781 62.660156 L 163.359375 36.699219 C 162.269531 33.417969 158.714844 31.78125 155.4375 32.871094 C 152.15625 34.238281 150.515625 37.792969 151.609375 41.070312 Z M 169.101562 209.683594 L 184.128906 153.117188 L 205.992188 234.550781 C 212.277344 257.507812 234.6875 272.539062 258.1875 269.53125 L 276.5 337.851562 L 250.539062 344.683594 C 247.257812 345.503906 245.34375 349.054688 246.164062 352.335938 C 246.984375 355.886719 250.539062 357.800781 253.816406 356.980469 L 317.765625 339.765625 C 321.316406 338.671875 323.230469 335.394531 322.410156 332.113281 C 321.316406 328.5625 318.039062 326.648438 314.757812 327.46875 L 288.796875 334.574219 L 270.488281 266.253906 C 292.347656 256.960938 304.375 232.914062 298.085938 209.683594 L 270.214844 105.839844 C 269.394531 102.285156 265.839844 100.371094 262.5625 101.191406 L 192.875 120.046875 L 196.972656 105.566406 C 197.792969 102.285156 195.882812 98.734375 192.328125 97.914062 L 112.257812 76.324219 C 108.976562 75.503906 105.699219 77.417969 104.605469 80.96875 L 76.730469 185.089844 C 70.71875 208.042969 82.742188 232.367188 104.605469 241.382812 L 86.296875 309.703125 L 60.335938 302.871094 C 57.054688 301.777344 53.503906 303.964844 52.683594 307.246094 C 51.863281 310.523438 53.777344 314.078125 57.054688 314.898438 L 121.003906 332.113281 C 124.554688 332.933594 127.835938 331.019531 128.65625 327.46875 C 129.746094 324.1875 127.5625 320.910156 124.28125 319.816406 L 98.320312 312.984375 L 116.628906 244.664062 C 140.132812 247.671875 162.816406 232.640625 169.101562 209.683594 Z M 191.78125 133.164062 L 259.828125 115.128906 L 276.773438 178.804688 C 274.3125 181.535156 271.304688 183.722656 268.027344 184.816406 C 263.65625 186.457031 258.1875 186.730469 252.175781 185.636719 C 248.078125 185.089844 243.707031 183.996094 238.785156 182.628906 C 228.402344 179.898438 217.195312 176.617188 203.804688 177.4375 Z M 191.78125 133.164062 " fill-opacity="1" fill-rule="evenodd"/></g></svg>