<svg xmlns="http://www.w3.org/2000/svg" xmlns:xlink="http://www.w3.org/1999/xlink" width="500" zoomAndPan="magnify" viewBox="0 0 375 374.999991" height="500" preserveAspectRatio="xMidYMid meet" version="1.0"><path fill="#000000" d="M 45.71875 363.464844 C 44.664062 363.464844 43.613281 363.414062 42.5625 363.308594 C 41.511719 363.207031 40.46875 363.050781 39.4375 362.847656 C 38.402344 362.640625 37.378906 362.382812 36.371094 362.078125 C 35.359375 361.769531 34.367188 361.414062 33.394531 361.011719 C 32.417969 360.609375 31.46875 360.15625 30.539062 359.660156 C 29.605469 359.164062 28.703125 358.621094 27.828125 358.035156 C 26.949219 357.449219 26.101562 356.820312 25.289062 356.152344 C 24.472656 355.480469 23.691406 354.773438 22.945312 354.027344 C 22.199219 353.28125 21.492188 352.5 20.824219 351.683594 C 20.15625 350.867188 19.527344 350.019531 18.941406 349.144531 C 18.355469 348.265625 17.8125 347.363281 17.316406 346.429688 C 16.820312 345.5 16.367188 344.546875 15.964844 343.574219 C 15.5625 342.597656 15.207031 341.605469 14.898438 340.59375 C 14.59375 339.585938 14.339844 338.5625 14.132812 337.527344 C 13.925781 336.492188 13.773438 335.449219 13.667969 334.398438 C 13.566406 333.347656 13.511719 332.296875 13.511719 331.242188 L 13.511719 48.363281 C 13.511719 47.304688 13.566406 46.253906 13.667969 45.203125 C 13.773438 44.152344 13.925781 43.109375 14.132812 42.074219 C 14.339844 41.039062 14.59375 40.015625 14.898438 39.007812 C 15.207031 37.996094 15.5625 37.003906 15.964844 36.03125 C 16.367188 35.054688 16.820312 34.101562 17.316406 33.171875 C 17.8125 32.238281 18.355469 31.335938 18.941406 30.457031 C 19.527344 29.582031 20.15625 28.734375 20.824219 27.917969 C 21.492188 27.101562 22.199219 26.320312 22.945312 25.574219 C 23.691406 24.828125 24.472656 24.121094 25.289062 23.453125 C 26.101562 22.78125 26.949219 22.152344 27.828125 21.566406 C 28.703125 20.980469 29.605469 20.441406 30.539062 19.941406 C 31.46875 19.445312 32.417969 18.992188 33.394531 18.589844 C 34.367188 18.1875 35.359375 17.832031 36.371094 17.523438 C 37.378906 17.21875 38.402344 16.960938 39.4375 16.757812 C 40.46875 16.550781 41.511719 16.394531 42.5625 16.292969 C 43.613281 16.1875 44.664062 16.136719 45.71875 16.136719 L 226.03125 16.136719 C 226.871094 16.097656 227.707031 16.140625 228.542969 16.265625 C 229.375 16.390625 230.1875 16.59375 230.980469 16.875 C 231.773438 17.160156 232.53125 17.519531 233.253906 17.949219 C 233.976562 18.382812 234.648438 18.878906 235.273438 19.441406 C 235.902344 20.003906 236.464844 20.625 236.972656 21.296875 C 237.476562 21.972656 237.910156 22.6875 238.277344 23.449219 C 238.640625 24.207031 238.929688 24.992188 239.140625 25.808594 C 239.351562 26.625 239.480469 27.453125 239.53125 28.292969 C 239.480469 29.132812 239.351562 29.960938 239.140625 30.777344 C 238.929688 31.59375 238.640625 32.378906 238.277344 33.140625 C 237.910156 33.898438 237.476562 34.613281 236.972656 35.289062 C 236.464844 35.964844 235.902344 36.582031 235.273438 37.144531 C 234.648438 37.707031 233.976562 38.207031 233.253906 38.636719 C 232.53125 39.070312 231.773438 39.425781 230.980469 39.710938 C 230.1875 39.992188 229.375 40.199219 228.542969 40.320312 C 227.707031 40.445312 226.871094 40.488281 226.03125 40.449219 L 51.3125 40.449219 C 50.414062 40.449219 49.523438 40.539062 48.640625 40.714844 C 47.757812 40.890625 46.902344 41.148438 46.070312 41.492188 C 45.242188 41.835938 44.453125 42.257812 43.703125 42.757812 C 42.957031 43.257812 42.265625 43.828125 41.628906 44.460938 C 40.992188 45.097656 40.425781 45.789062 39.925781 46.539062 C 39.425781 47.285156 39.003906 48.078125 38.660156 48.90625 C 38.316406 49.738281 38.058594 50.59375 37.882812 51.476562 C 37.707031 52.359375 37.621094 53.25 37.621094 54.148438 L 37.621094 325.644531 C 37.621094 326.542969 37.707031 327.433594 37.882812 328.316406 C 38.058594 329.199219 38.316406 330.058594 38.660156 330.886719 C 39.003906 331.71875 39.425781 332.507812 39.925781 333.257812 C 40.425781 334.003906 40.992188 334.695312 41.628906 335.332031 C 42.265625 335.96875 42.957031 336.535156 43.703125 337.035156 C 44.453125 337.535156 45.242188 337.957031 46.070312 338.300781 C 46.902344 338.644531 47.757812 338.90625 48.640625 339.082031 C 49.523438 339.257812 50.414062 339.34375 51.3125 339.34375 L 322.839844 339.34375 C 323.738281 339.34375 324.628906 339.257812 325.511719 339.082031 C 326.394531 338.90625 327.25 338.644531 328.078125 338.300781 C 328.910156 337.957031 329.699219 337.535156 330.445312 337.035156 C 331.195312 336.535156 331.886719 335.96875 332.523438 335.332031 C 333.15625 334.695312 333.726562 334.003906 334.226562 333.257812 C 334.722656 332.507812 335.144531 331.71875 335.488281 330.886719 C 335.835938 330.054688 336.09375 329.199219 336.269531 328.316406 C 336.445312 327.433594 336.53125 326.542969 336.53125 325.644531 L 336.53125 190.574219 C 336.53125 189.773438 336.609375 188.984375 336.765625 188.203125 C 336.921875 187.417969 337.152344 186.660156 337.457031 185.921875 C 337.761719 185.183594 338.136719 184.484375 338.578125 183.820312 C 339.023438 183.15625 339.527344 182.542969 340.089844 181.976562 C 340.65625 181.414062 341.269531 180.910156 341.933594 180.464844 C 342.59375 180.023438 343.296875 179.648438 344.03125 179.339844 C 344.769531 179.035156 345.527344 178.804688 346.3125 178.648438 C 347.09375 178.496094 347.882812 178.417969 348.683594 178.417969 C 349.480469 178.417969 350.269531 178.496094 351.050781 178.648438 C 351.835938 178.804688 352.59375 179.035156 353.332031 179.339844 C 354.066406 179.648438 354.769531 180.023438 355.429688 180.464844 C 356.09375 180.910156 356.707031 181.414062 357.273438 181.976562 C 357.835938 182.542969 358.339844 183.15625 358.785156 183.820312 C 359.226562 184.484375 359.601562 185.183594 359.90625 185.921875 C 360.210938 186.660156 360.441406 187.417969 360.597656 188.203125 C 360.753906 188.984375 360.832031 189.773438 360.832031 190.574219 L 360.832031 330.46875 C 360.832031 331.523438 360.78125 332.578125 360.675781 333.628906 C 360.574219 334.679688 360.417969 335.71875 360.210938 336.753906 C 360.007812 337.789062 359.75 338.8125 359.445312 339.824219 C 359.136719 340.832031 358.785156 341.824219 358.378906 342.800781 C 357.976562 343.777344 357.527344 344.730469 357.027344 345.660156 C 356.53125 346.589844 355.988281 347.496094 355.402344 348.371094 C 354.816406 349.25 354.191406 350.097656 353.519531 350.910156 C 352.851562 351.726562 352.144531 352.507812 351.398438 353.253906 C 350.652344 354 349.871094 354.710938 349.054688 355.378906 C 348.242188 356.046875 347.394531 356.675781 346.519531 357.261719 C 345.640625 357.847656 344.738281 358.390625 343.808594 358.886719 C 342.878906 359.386719 341.925781 359.835938 340.949219 360.242188 C 339.976562 360.644531 338.984375 361 337.972656 361.304688 C 336.964844 361.613281 335.941406 361.867188 334.910156 362.074219 C 333.875 362.28125 332.832031 362.433594 331.78125 362.539062 C 330.734375 362.640625 329.679688 362.691406 328.625 362.691406 Z M 97.015625 189.800781 C 96.410156 189.246094 95.863281 188.636719 95.378906 187.972656 C 94.894531 187.308594 94.484375 186.605469 94.144531 185.855469 C 93.804688 185.109375 93.542969 184.332031 93.359375 183.53125 C 93.175781 182.730469 93.074219 181.917969 93.054688 181.097656 C 93.035156 180.277344 93.097656 179.460938 93.246094 178.652344 C 93.390625 177.84375 93.617188 177.058594 93.921875 176.292969 C 94.226562 175.53125 94.605469 174.808594 95.058594 174.121094 C 95.511719 173.433594 96.027344 172.800781 96.609375 172.21875 C 97.191406 171.640625 97.824219 171.121094 98.507812 170.671875 C 99.195312 170.21875 99.917969 169.839844 100.679688 169.53125 C 101.445312 169.226562 102.230469 169 103.039062 168.855469 C 103.84375 168.707031 104.660156 168.644531 105.480469 168.664062 C 106.300781 168.683594 107.113281 168.785156 107.914062 168.96875 C 108.714844 169.152344 109.488281 169.414062 110.238281 169.753906 C 110.984375 170.09375 111.691406 170.507812 112.355469 170.992188 C 113.019531 171.472656 113.625 172.019531 114.179688 172.628906 L 164.320312 222.796875 C 164.679688 223.152344 165.09375 223.421875 165.5625 223.613281 C 166.027344 223.804688 166.515625 223.898438 167.019531 223.898438 C 167.523438 223.898438 168.011719 223.804688 168.476562 223.613281 C 168.945312 223.421875 169.359375 223.152344 169.71875 222.796875 L 330.746094 61.675781 C 331.300781 61.066406 331.910156 60.523438 332.574219 60.039062 C 333.238281 59.554688 333.941406 59.140625 334.691406 58.800781 C 335.4375 58.460938 336.210938 58.199219 337.011719 58.015625 C 337.8125 57.832031 338.625 57.730469 339.445312 57.710938 C 340.265625 57.691406 341.082031 57.753906 341.890625 57.902344 C 342.699219 58.046875 343.484375 58.273438 344.246094 58.582031 C 345.007812 58.886719 345.730469 59.265625 346.417969 59.71875 C 347.101562 60.171875 347.738281 60.6875 348.316406 61.269531 C 348.898438 61.851562 349.414062 62.484375 349.867188 63.167969 C 350.320312 63.855469 350.699219 64.578125 351.003906 65.34375 C 351.308594 66.105469 351.535156 66.890625 351.679688 67.699219 C 351.828125 68.507812 351.890625 69.324219 351.871094 70.144531 C 351.851562 70.96875 351.753906 71.777344 351.570312 72.578125 C 351.386719 73.382812 351.125 74.15625 350.78125 74.902344 C 350.441406 75.652344 350.03125 76.359375 349.546875 77.023438 C 349.0625 77.6875 348.515625 78.296875 347.910156 78.847656 L 170.683594 255.40625 C 170.441406 255.660156 170.175781 255.886719 169.886719 256.089844 C 169.597656 256.289062 169.289062 256.457031 168.96875 256.59375 C 168.644531 256.734375 168.3125 256.835938 167.964844 256.910156 C 167.621094 256.980469 167.273438 257.015625 166.921875 257.015625 C 166.570312 257.015625 166.222656 256.980469 165.878906 256.910156 C 165.535156 256.835938 165.203125 256.734375 164.878906 256.59375 C 164.554688 256.457031 164.25 256.289062 163.960938 256.089844 C 163.671875 255.886719 163.40625 255.660156 163.164062 255.40625 Z M 97.015625 189.800781 " fill-opacity="1" fill-rule="nonzero"/></svg>