<svg xmlns="http://www.w3.org/2000/svg" xmlns:xlink="http://www.w3.org/1999/xlink" width="500" zoomAndPan="magnify" viewBox="0 0 375 374.999991" height="500" preserveAspectRatio="xMidYMid meet" version="1.0"><path fill="#000000" d="M 330.921875 192.910156 L 188.328125 364.210938 C 187.859375 365.152344 186.914062 365.621094 185.972656 365.621094 C 185.03125 365.621094 184.09375 365.152344 183.621094 364.210938 L 40.085938 192.910156 C 39.613281 191.96875 39.140625 190.558594 39.613281 189.617188 C 40.082031 188.671875 41.492188 187.734375 42.433594 187.734375 L 120.558594 187.261719 C 121.5 187.261719 122.4375 187.730469 122.910156 188.671875 L 148.792969 219.734375 L 148.792969 12.667969 C 148.792969 10.785156 150.207031 9.371094 152.089844 9.371094 L 217.503906 9.371094 C 219.386719 9.371094 220.800781 10.78125 220.800781 12.667969 L 220.800781 219.734375 L 246.683594 188.671875 C 247.15625 187.730469 248.097656 187.261719 249.039062 187.261719 L 327.160156 187.730469 C 328.574219 187.730469 329.515625 188.671875 329.984375 189.613281 C 331.863281 190.558594 331.390625 191.96875 330.917969 192.910156 Z M 330.921875 192.910156 " fill-opacity="1" fill-rule="nonzero"/></svg>