<svg xmlns="http://www.w3.org/2000/svg" xmlns:xlink="http://www.w3.org/1999/xlink" width="500" zoomAndPan="magnify" viewBox="0 0 375 374.999991" height="500" preserveAspectRatio="xMidYMid meet" version="1.0"><path fill="#000000" d="M 182.085938 44.074219 L 10.785156 186.667969 C 9.84375 187.136719 9.375 188.082031 9.375 189.023438 C 9.375 189.964844 9.84375 190.902344 10.785156 191.375 L 182.085938 334.910156 C 183.027344 335.382812 184.4375 335.855469 185.378906 335.382812 C 186.324219 334.914062 187.261719 333.503906 187.261719 332.5625 L 187.734375 254.4375 C 187.734375 253.496094 187.265625 252.558594 186.324219 252.085938 L 155.261719 226.203125 L 362.328125 226.203125 C 364.210938 226.203125 365.625 224.789062 365.625 222.90625 L 365.625 157.492188 C 365.625 155.609375 364.214844 154.195312 362.328125 154.195312 L 155.261719 154.195312 L 186.324219 128.3125 C 187.265625 127.839844 187.734375 126.898438 187.734375 125.957031 L 187.265625 47.835938 C 187.265625 46.425781 186.324219 45.480469 185.382812 45.011719 C 184.4375 43.132812 183.027344 43.605469 182.085938 44.078125 Z M 182.085938 44.074219 " fill-opacity="1" fill-rule="nonzero"/></svg>