<svg xmlns="http://www.w3.org/2000/svg" xmlns:xlink="http://www.w3.org/1999/xlink" width="500" zoomAndPan="magnify" viewBox="0 0 375 374.999991" height="500" preserveAspectRatio="xMidYMid meet" version="1.0"><defs><clipPath id="50aa3326b7"><path d="M 125.703125 117.363281 L 249.296875 117.363281 L 249.296875 240.953125 L 125.703125 240.953125 Z M 125.703125 117.363281 " clip-rule="nonzero"/></clipPath><clipPath id="08e0e29de6"><path d="M 187.5 117.363281 C 153.371094 117.363281 125.703125 145.027344 125.703125 179.15625 C 125.703125 213.289062 153.371094 240.953125 187.5 240.953125 C 221.628906 240.953125 249.296875 213.289062 249.296875 179.15625 C 249.296875 145.027344 221.628906 117.363281 187.5 117.363281 " clip-rule="nonzero"/></clipPath><clipPath id="8074d5abc8"><path d="M 120.011719 111.671875 L 255.011719 111.671875 L 255.011719 246.671875 L 120.011719 246.671875 Z M 120.011719 111.671875 " clip-rule="nonzero"/></clipPath></defs><path fill="#000000" d="M 187.621094 165.878906 C 179.457031 165.878906 172.820312 172.511719 172.820312 180.671875 C 172.820312 188.835938 179.464844 195.476562 187.621094 195.476562 C 195.785156 195.476562 202.421875 188.835938 202.421875 180.671875 C 202.421875 172.511719 195.785156 165.878906 187.621094 165.878906 Z M 187.621094 165.878906 " fill-opacity="1" fill-rule="nonzero"/><path fill="#000000" d="M 261.714844 199.414062 L 261.714844 112.972656 C 261.714844 112.875 261.769531 112.800781 261.773438 112.703125 L 113.476562 112.703125 C 113.480469 112.800781 113.527344 112.875 113.527344 112.972656 L 113.527344 199.414062 C 113.527344 224.035156 133.550781 244.054688 158.164062 244.054688 L 217.074219 244.054688 C 241.691406 244.054688 261.714844 224.027344 261.714844 199.414062 Z M 187.621094 204.125 C 174.691406 204.125 164.171875 193.605469 164.171875 180.671875 C 164.171875 167.746094 174.695312 157.230469 187.621094 157.230469 C 200.554688 157.230469 211.070312 167.746094 211.070312 180.671875 C 211.070312 193.605469 200.554688 204.125 187.621094 204.125 Z M 187.621094 204.125 " fill-opacity="1" fill-rule="nonzero"/><path fill="#000000" d="M 100.140625 83.632812 L 275.105469 83.632812 L 275.105469 104.054688 L 100.140625 104.054688 Z M 100.140625 83.632812 " fill-opacity="1" fill-rule="nonzero"/><path fill="#000000" d="M 137.246094 74.984375 L 137.246094 11.214844 C 137.246094 8.828125 135.308594 6.890625 132.921875 6.890625 C 130.535156 6.890625 128.597656 8.828125 128.597656 11.214844 L 128.597656 74.984375 Z M 137.246094 74.984375 " fill-opacity="1" fill-rule="nonzero"/><path fill="#000000" d="M 183.296875 252.703125 L 183.296875 357.785156 C 183.296875 360.171875 185.234375 362.109375 187.621094 362.109375 C 190.007812 362.109375 191.945312 360.171875 191.945312 357.785156 L 191.945312 252.703125 Z M 183.296875 252.703125 " fill-opacity="1" fill-rule="nonzero"/><path fill="#000000" d="M 246.644531 74.984375 L 246.644531 11.214844 C 246.644531 8.828125 244.707031 6.890625 242.320312 6.890625 C 239.933594 6.890625 237.996094 8.828125 237.996094 11.214844 L 237.996094 74.984375 Z M 246.644531 74.984375 " fill-opacity="1" fill-rule="nonzero"/><g clip-path="url(#50aa3326b7)"><g clip-path="url(#08e0e29de6)"><path fill="#ffffff" d="M 125.703125 117.363281 L 249.296875 117.363281 L 249.296875 240.953125 L 125.703125 240.953125 Z M 125.703125 117.363281 " fill-opacity="1" fill-rule="nonzero"/></g></g><g clip-path="url(#8074d5abc8)"><path fill="#ff3131" d="M 187.546875 111.671875 C 150.242188 111.640625 120.011719 141.871094 120.011719 179.132812 C 120.011719 216.449219 150.242188 246.679688 187.546875 246.667969 C 224.816406 246.679688 255.046875 216.445312 255.011719 179.132812 C 255.046875 141.871094 224.816406 111.640625 187.546875 111.671875 Z M 133.132812 190.183594 L 133.132812 168.011719 L 242.109375 168.011719 L 242.109375 190.183594 Z M 133.132812 190.183594 " fill-opacity="1" fill-rule="nonzero"/></g></svg>