<svg xmlns="http://www.w3.org/2000/svg" xmlns:xlink="http://www.w3.org/1999/xlink" width="500" zoomAndPan="magnify" viewBox="0 0 375 374.999991" height="500" preserveAspectRatio="xMidYMid meet" version="1.0"><defs><clipPath id="5a3db735e4"><path d="M 3.75 0 L 371.25 0 L 371.25 368 L 3.75 368 Z M 3.75 0 " clip-rule="nonzero"/></clipPath></defs><g clip-path="url(#5a3db735e4)"><path fill="#000000" d="M 363.59375 286.875 L 349.046875 286.875 C 349.046875 286.875 348.28125 286.875 348.28125 286.875 L 169.890625 286.875 L 215.0625 241.738281 C 226.546875 230.265625 232.671875 214.964844 232.671875 198.898438 C 232.671875 190.484375 231.140625 182.070312 227.3125 174.421875 L 361.296875 51.257812 C 367.421875 45.902344 371.25 38.25 371.25 29.835938 C 371.25 21.421875 368.1875 13.769531 362.828125 8.417969 C 356.703125 3.0625 349.046875 0 341.390625 0 C 332.96875 0 326.078125 3.828125 319.953125 9.945312 L 196.6875 143.054688 C 189.03125 139.996094 180.609375 137.699219 172.1875 137.699219 C 156.109375 137.699219 140.796875 143.820312 129.3125 155.296875 L 65 220.320312 C 61.9375 223.378906 61.9375 227.96875 65 231.03125 C 66.53125 232.558594 68.828125 233.324219 70.359375 233.324219 C 72.65625 233.324219 74.1875 232.558594 75.71875 231.03125 L 134.671875 172.125 L 149.21875 186.660156 L 90.265625 244.800781 C 87.203125 247.859375 87.203125 252.449219 90.265625 255.511719 C 91.796875 257.039062 94.09375 257.804688 95.625 257.804688 C 97.921875 257.804688 99.453125 257.039062 100.984375 255.511719 L 159.9375 196.605469 L 174.484375 211.140625 L 115.53125 270.042969 C 112.46875 273.105469 112.46875 277.695312 115.53125 280.753906 C 117.0625 282.285156 119.359375 283.050781 120.890625 283.050781 C 123.1875 283.050781 124.71875 282.285156 126.25 280.753906 L 185.203125 221.851562 L 199.75 236.386719 L 149.21875 286.875 L 11.40625 286.875 C 6.8125 286.875 3.75 289.933594 3.75 294.523438 C 3.75 299.113281 6.8125 302.175781 11.40625 302.175781 L 22.125 302.175781 C 42.03125 341.953125 83.375 367.199219 128.546875 367.199219 L 247.21875 367.199219 C 290.09375 367.199219 329.140625 344.25 350.578125 307.53125 L 353.640625 302.175781 L 364.359375 302.175781 C 368.953125 302.175781 372.015625 299.113281 372.015625 294.523438 C 371.25 290.699219 368.1875 286.875 363.59375 286.875 Z M 331.4375 19.890625 C 333.734375 16.832031 337.5625 15.300781 341.390625 15.300781 C 345.21875 15.300781 349.046875 16.832031 352.109375 19.125 C 354.40625 22.1875 355.9375 26.011719 355.9375 29.835938 C 355.9375 33.660156 354.40625 37.484375 351.34375 39.78125 L 219.65625 161.414062 C 218.125 159.886719 216.59375 157.589844 215.0625 156.058594 C 213.53125 154.53125 212 153 209.703125 151.46875 Z M 172.1875 153.765625 C 184.4375 153.765625 195.921875 158.355469 204.34375 166.769531 C 212.765625 175.183594 217.359375 186.660156 217.359375 198.898438 C 217.359375 208.082031 214.296875 217.261719 208.9375 224.910156 L 164.53125 180.539062 L 145.390625 161.414062 C 153.8125 156.058594 163 153.765625 172.1875 153.765625 Z M 246.453125 351.898438 L 127.78125 351.898438 C 91.796875 351.898438 58.109375 332.773438 38.96875 302.175781 L 334.5 302.175781 C 316.125 332.773438 282.4375 351.898438 246.453125 351.898438 Z M 246.453125 351.898438 " fill-opacity="1" fill-rule="nonzero"/></g></svg>