<svg xmlns="http://www.w3.org/2000/svg" xmlns:xlink="http://www.w3.org/1999/xlink" width="500" zoomAndPan="magnify" viewBox="0 0 375 374.999991" height="500" preserveAspectRatio="xMidYMid meet" version="1.0"><path fill="#000000" d="M 192.914062 44.074219 L 364.214844 186.667969 C 365.15625 187.136719 365.625 188.082031 365.625 189.023438 C 365.625 189.964844 365.15625 190.902344 364.214844 191.375 L 192.914062 334.910156 C 191.972656 335.382812 190.5625 335.855469 189.621094 335.382812 C 188.675781 334.914062 187.738281 333.503906 187.738281 332.5625 L 187.265625 254.4375 C 187.265625 253.496094 187.734375 252.558594 188.675781 252.085938 L 219.738281 226.203125 L 12.671875 226.203125 C 10.789062 226.203125 9.375 224.789062 9.375 222.90625 L 9.375 157.492188 C 9.375 155.609375 10.785156 154.195312 12.671875 154.195312 L 219.738281 154.195312 L 188.675781 128.3125 C 187.734375 127.839844 187.265625 126.898438 187.265625 125.957031 L 187.734375 47.835938 C 187.734375 46.425781 188.675781 45.480469 189.617188 45.011719 C 190.5625 43.132812 191.972656 43.605469 192.914062 44.078125 Z M 192.914062 44.074219 " fill-opacity="1" fill-rule="nonzero"/></svg>