<svg xmlns="http://www.w3.org/2000/svg" xmlns:xlink="http://www.w3.org/1999/xlink" width="500" zoomAndPan="magnify" viewBox="0 0 375 374.999991" height="500" preserveAspectRatio="xMidYMid meet" version="1.0"><path fill="#000000" d="M 330.921875 182.085938 L 188.328125 10.78125 C 187.859375 9.839844 186.914062 9.371094 185.972656 9.371094 C 185.03125 9.371094 184.09375 9.839844 183.621094 10.78125 L 40.085938 182.085938 C 39.613281 183.023438 39.140625 184.433594 39.613281 185.375 C 40.082031 186.320312 41.492188 187.257812 42.433594 187.257812 L 120.558594 187.730469 C 121.5 187.730469 122.4375 187.261719 122.910156 186.320312 L 148.792969 155.257812 L 148.792969 362.324219 C 148.792969 364.207031 150.207031 365.621094 152.089844 365.621094 L 217.503906 365.621094 C 219.386719 365.621094 220.800781 364.210938 220.800781 362.324219 L 220.800781 155.257812 L 246.683594 186.320312 C 247.15625 187.261719 248.097656 187.730469 249.039062 187.730469 L 327.160156 187.261719 C 328.574219 187.261719 329.515625 186.320312 329.984375 185.378906 C 331.863281 184.433594 331.390625 183.023438 330.917969 182.085938 Z M 330.921875 182.085938 " fill-opacity="1" fill-rule="nonzero"/></svg>