<svg xmlns="http://www.w3.org/2000/svg" xmlns:xlink="http://www.w3.org/1999/xlink" width="500" zoomAndPan="magnify" viewBox="0 0 375 374.999991" height="500" preserveAspectRatio="xMidYMid meet" version="1.0"><path fill="#000000" d="M 213.449219 39.855469 C 213.449219 34.785156 209.546875 30.882812 204.863281 30.492188 C 204.863281 30.492188 203.695312 30.492188 202.523438 30.492188 C 196.28125 30.492188 179.5 31.269531 159.988281 37.125 C 150.234375 39.855469 139.699219 44.148438 129.941406 50.390625 C 119.796875 56.636719 110.433594 64.832031 102.628906 75.757812 C 101.457031 77.316406 101.066406 79.269531 101.066406 80.828125 C 101.066406 83.5625 102.238281 86.292969 104.578125 87.855469 C 106.140625 89.023438 108.089844 89.414062 109.652344 89.414062 C 112.382812 89.414062 115.113281 88.246094 116.675781 85.902344 C 122.917969 77.316406 130.722656 70.683594 138.917969 65.222656 C 151.40625 57.417969 165.453125 53.125 177.160156 50.78125 C 188.867188 48.441406 198.621094 48.050781 202.523438 48.050781 C 203.304688 48.050781 203.695312 48.050781 204.085938 48.050781 L 204.863281 48.050781 C 209.546875 48.441406 213.449219 44.539062 213.449219 39.855469 Z M 213.449219 39.855469 " fill-opacity="1" fill-rule="nonzero"/><path fill="#000000" d="M 84.675781 68.34375 C 86.238281 69.511719 88.1875 70.292969 90.140625 70.292969 C 92.871094 70.292969 95.605469 69.125 97.164062 66.78125 C 113.164062 45.320312 135.015625 34.003906 155.308594 27.757812 C 175.207031 21.515625 193.546875 20.734375 200.960938 20.734375 C 202.132812 20.734375 202.914062 20.734375 203.695312 20.734375 L 204.863281 20.734375 C 209.546875 20.734375 213.449219 17.222656 213.839844 12.539062 L 213.839844 12.148438 C 213.839844 7.46875 210.328125 3.566406 205.644531 3.175781 C 205.644531 3.175781 204.085938 3.175781 200.960938 3.175781 C 192.378906 3.175781 172.476562 3.957031 149.84375 10.980469 C 127.210938 18.003906 101.847656 31.269531 82.726562 56.246094 C 81.554688 57.808594 80.773438 59.757812 80.773438 61.707031 C 81.164062 63.660156 82.335938 66.390625 84.675781 68.34375 Z M 84.675781 68.34375 " fill-opacity="1" fill-rule="nonzero"/><path fill="#000000" d="M 341.832031 191.652344 C 341.832031 185.019531 341.441406 180.726562 341.050781 180.335938 C 340.269531 176.046875 336.757812 172.921875 332.464844 172.921875 C 332.074219 172.921875 331.6875 172.921875 331.296875 172.921875 C 327.003906 173.703125 323.882812 177.214844 323.882812 181.507812 C 323.882812 181.898438 323.882812 181.898438 323.882812 182.289062 C 323.882812 182.289062 323.882812 182.679688 323.882812 182.679688 C 323.882812 182.679688 323.882812 182.679688 323.882812 183.070312 C 323.882812 183.070312 324.273438 186.191406 324.273438 191.652344 C 324.273438 199.847656 323.101562 212.726562 318.417969 227.554688 C 313.34375 242.382812 304.761719 259.164062 289.152344 274.773438 C 287.589844 276.332031 286.421875 278.675781 286.421875 281.015625 C 286.421875 283.355469 287.199219 285.699219 289.152344 287.257812 C 290.710938 288.820312 293.054688 289.992188 295.394531 289.992188 C 297.738281 289.992188 300.078125 289.210938 301.640625 287.257812 C 319.589844 269.308594 329.734375 250.1875 335.199219 233.019531 C 340.660156 216.238281 341.832031 201.410156 341.832031 191.652344 Z M 341.832031 191.652344 " fill-opacity="1" fill-rule="nonzero"/><path fill="#000000" d="M 288.761719 223.261719 C 288.761719 215.847656 286.03125 208.433594 280.566406 202.972656 L 278.617188 201.019531 C 275.882812 198.289062 272.761719 196.335938 269.25 194.777344 L 273.542969 190.484375 C 279.785156 184.238281 282.910156 176.046875 283.296875 167.851562 C 283.296875 167.851562 283.296875 167.851562 283.296875 167.460938 C 283.296875 159.265625 280.175781 150.679688 273.542969 144.4375 C 270.8125 141.707031 267.691406 139.753906 264.179688 138.191406 C 268.46875 133.121094 270.8125 126.488281 270.8125 120.242188 C 270.8125 120.242188 270.8125 119.851562 270.8125 119.851562 L 270.8125 119.460938 C 270.8125 112.4375 268.082031 105.023438 262.617188 99.5625 L 257.542969 94.488281 C 252.082031 89.023438 244.667969 86.292969 237.253906 86.292969 C 231.007812 86.292969 225.15625 88.246094 220.082031 92.148438 C 218.523438 88.632812 216.570312 85.511719 213.839844 82.78125 C 208.375 77.316406 200.960938 74.585938 193.546875 74.585938 C 186.132812 74.585938 178.71875 77.316406 173.257812 82.78125 L 103.796875 151.851562 C 105.359375 146.777344 106.53125 142.09375 106.53125 137.023438 C 106.53125 130.390625 104.578125 123.753906 100.675781 117.902344 C 96.773438 112.046875 90.921875 107.753906 83.898438 104.632812 L 83.507812 104.632812 L 82.726562 104.242188 C 81.164062 103.851562 79.605469 103.464844 77.652344 103.464844 C 72.191406 103.464844 66.726562 106.585938 63.996094 111.65625 C 63.214844 112.828125 52.679688 131.558594 40.582031 154.972656 C 34.339844 167.070312 27.707031 180.335938 21.851562 193.214844 C 16 206.09375 10.925781 218.191406 7.804688 228.726562 C 7.414062 229.507812 3.902344 240.824219 3.902344 257.601562 C 3.902344 268.136719 5.464844 281.40625 10.535156 295.0625 C 15.609375 308.722656 23.804688 323.550781 37.460938 336.820312 C 49.167969 348.523438 62.433594 356.71875 75.703125 361.792969 C 88.96875 366.867188 102.238281 368.816406 114.722656 368.816406 C 127.992188 368.816406 140.480469 366.476562 150.625 362.964844 C 160.769531 359.453125 169.355469 354.769531 174.816406 349.304688 L 280.175781 243.945312 C 285.640625 237.699219 288.371094 230.675781 288.761719 223.261719 Z M 81.554688 344.621094 C 70.628906 340.332031 59.703125 334.085938 49.558594 323.941406 C 37.851562 312.234375 30.828125 300.136719 26.535156 288.429688 C 22.242188 277.113281 21.070312 266.1875 21.070312 256.820312 C 21.070312 249.796875 21.851562 243.554688 22.632812 239.652344 C 23.023438 237.699219 23.414062 236.140625 23.804688 234.96875 C 23.804688 234.578125 24.195312 234.1875 24.195312 233.796875 L 24.195312 233.410156 C 26.925781 224.433594 31.609375 212.726562 37.460938 200.238281 C 46.046875 181.507812 56.191406 161.605469 64.386719 145.996094 C 68.679688 138.191406 72.191406 131.949219 74.53125 127.265625 C 75.703125 124.925781 76.875 123.363281 77.652344 121.804688 C 77.652344 121.414062 78.042969 121.414062 78.042969 121.023438 C 81.554688 122.972656 83.898438 124.925781 85.457031 127.265625 C 87.410156 130 88.1875 132.730469 88.1875 136.242188 C 88.1875 140.535156 87.019531 145.609375 83.898438 151.460938 L 65.167969 189.3125 C 64.386719 190.484375 64.386719 192.042969 64.386719 193.214844 C 64.386719 195.945312 65.558594 198.679688 68.289062 200.628906 C 69.847656 201.800781 71.800781 202.191406 73.359375 202.191406 C 75.703125 202.191406 78.042969 201.410156 79.605469 199.457031 L 184.964844 94.097656 C 187.304688 92.148438 189.644531 90.976562 192.769531 90.976562 C 195.5 90.976562 198.230469 92.148438 200.574219 94.097656 C 202.523438 96.050781 203.695312 98.78125 203.695312 101.902344 C 203.695312 104.632812 202.523438 107.367188 200.574219 109.707031 L 122.136719 188.921875 C 120.578125 190.484375 119.40625 192.824219 119.40625 195.167969 C 119.40625 197.507812 120.1875 199.847656 122.136719 201.410156 C 123.699219 202.972656 126.039062 204.140625 128.382812 204.140625 C 130.722656 204.140625 133.066406 203.359375 134.625 201.410156 L 229.449219 106.585938 C 231.789062 104.632812 234.132812 103.464844 237.253906 103.464844 C 239.984375 103.464844 242.714844 104.632812 245.058594 106.585938 L 250.128906 111.65625 C 252.082031 114 253.25 116.339844 253.25 119.460938 C 253.25 122.195312 252.082031 124.925781 250.128906 127.265625 L 233.351562 144.046875 L 199.011719 177.996094 L 155.308594 221.703125 C 153.746094 223.261719 152.574219 225.605469 152.574219 227.945312 C 152.574219 230.285156 153.355469 232.628906 155.308594 234.1875 C 156.867188 235.75 159.210938 236.921875 161.550781 236.921875 C 163.890625 236.921875 166.234375 236.140625 167.792969 234.1875 L 172.085938 229.894531 L 245.449219 156.535156 C 247.789062 154.582031 250.128906 153.410156 253.25 153.410156 C 255.984375 153.410156 258.714844 154.582031 261.054688 156.535156 C 264.179688 159.65625 265.347656 163.167969 265.347656 167.070312 C 265.347656 170.972656 263.789062 174.875 261.054688 177.605469 L 238.035156 201.019531 L 181.0625 257.601562 L 174.816406 263.847656 C 173.257812 265.40625 172.085938 267.75 172.085938 270.089844 C 172.085938 272.429688 172.867188 274.773438 174.816406 276.332031 C 176.378906 277.894531 178.71875 279.066406 181.0625 279.066406 C 183.402344 279.066406 185.742188 278.285156 187.304688 276.332031 L 191.207031 272.429688 L 238.035156 225.605469 L 250.128906 213.507812 C 252.472656 211.554688 254.8125 210.386719 257.933594 210.386719 C 260.664062 210.386719 263.398438 211.554688 265.738281 213.507812 L 267.691406 215.457031 C 269.640625 217.800781 270.8125 220.140625 270.8125 223.261719 C 270.8125 225.996094 269.640625 228.726562 267.691406 231.066406 L 162.332031 336.429688 C 161.160156 337.597656 158.820312 339.550781 155.695312 341.109375 C 152.574219 342.671875 149.0625 344.621094 144.769531 345.792969 C 136.1875 348.523438 125.648438 350.476562 114.335938 350.476562 C 103.796875 350.476562 92.480469 348.914062 81.554688 344.621094 Z M 7.804688 228.335938 Z M 7.804688 228.335938 " fill-opacity="1" fill-rule="nonzero"/><path fill="#000000" d="M 370.707031 177.605469 C 369.925781 173.3125 366.414062 170.191406 362.121094 170.191406 C 361.734375 170.191406 361.34375 170.191406 360.953125 170.191406 C 356.660156 170.972656 353.539062 174.484375 353.539062 178.777344 C 353.539062 178.777344 353.539062 179.167969 353.539062 179.558594 L 353.539062 180.335938 C 353.539062 180.335938 353.929688 183.460938 353.929688 188.921875 C 353.929688 197.898438 352.757812 213.117188 346.125 231.457031 C 339.488281 249.796875 327.394531 270.871094 306.320312 292.332031 C 304.761719 293.894531 303.589844 296.234375 303.589844 298.578125 C 303.589844 300.917969 304.371094 303.257812 306.320312 304.820312 C 307.882812 306.378906 310.222656 307.550781 312.566406 307.550781 C 314.90625 307.550781 317.246094 306.769531 318.808594 304.820312 C 341.832031 281.796875 355.097656 257.992188 362.511719 237.3125 C 369.925781 216.628906 371.097656 199.457031 371.097656 188.921875 C 371.097656 182.289062 370.707031 178.386719 370.707031 177.605469 Z M 370.707031 177.605469 " fill-opacity="1" fill-rule="nonzero"/></svg>