<svg xmlns="http://www.w3.org/2000/svg" xmlns:xlink="http://www.w3.org/1999/xlink" width="500" zoomAndPan="magnify" viewBox="0 0 375 374.999991" height="500" preserveAspectRatio="xMidYMid meet" version="1.0"><defs><clipPath id="e4ebcd3c9d"><path d="M 22 16 L 366.636719 16 L 366.636719 362 L 22 362 Z M 22 16 " clip-rule="nonzero"/></clipPath></defs><path fill="#000000" d="M 181.265625 144.402344 C 179.878906 134.90625 175.105469 126.765625 168.464844 120.539062 C 164.972656 117.269531 160.816406 114.804688 156.335938 112.980469 C 151.925781 111.183594 147.09375 110.386719 142.121094 110.210938 C 139.15625 110.28125 136.238281 110.539062 133.449219 111.242188 C 126.816406 112.910156 120.714844 116.042969 115.824219 120.585938 C 109.171875 126.789062 104.386719 134.917969 102.972656 144.402344 C 102.308594 146.878906 103.789062 149.425781 106.265625 150.09375 C 108.738281 150.746094 111.28125 149.273438 111.949219 146.796875 C 114.457031 140.398438 119.183594 135.632812 124.71875 132.183594 C 126.828125 130.875 129.128906 130.011719 131.5 129.207031 C 134.847656 128.0625 138.417969 127.546875 142.121094 127.710938 C 145.179688 127.605469 148.152344 127.96875 150.992188 128.75 C 153.976562 129.582031 156.871094 130.621094 159.488281 132.242188 C 165.019531 135.6875 169.769531 140.410156 172.304688 146.796875 C 172.96875 149.273438 175.511719 150.746094 177.988281 150.09375 C 180.460938 149.425781 181.933594 146.878906 181.265625 144.402344 Z M 181.265625 144.402344 " fill-opacity="1" fill-rule="evenodd"/><path fill="#000000" d="M 286.804688 144.402344 C 285.414062 134.90625 280.628906 126.765625 273.988281 120.539062 C 270.507812 117.269531 266.355469 114.804688 261.871094 112.980469 C 257.449219 111.183594 252.617188 110.386719 247.65625 110.210938 C 244.691406 110.28125 241.773438 110.539062 238.984375 111.242188 C 232.34375 112.910156 226.238281 116.042969 221.347656 120.585938 C 214.707031 126.789062 209.921875 134.917969 208.507812 144.402344 C 207.84375 146.878906 209.3125 149.425781 211.789062 150.09375 C 214.261719 150.746094 216.808594 149.273438 217.472656 146.796875 C 219.984375 140.398438 224.710938 135.632812 230.253906 132.183594 C 232.355469 130.875 234.664062 130.011719 237.023438 129.207031 C 240.371094 128.0625 243.957031 127.546875 247.65625 127.710938 C 250.714844 127.605469 253.679688 127.96875 256.515625 128.75 C 259.515625 129.582031 262.410156 130.621094 265.011719 132.242188 C 270.542969 135.6875 275.308594 140.410156 277.828125 146.796875 C 278.492188 149.273438 281.039062 150.746094 283.511719 150.09375 C 285.988281 149.425781 287.46875 146.878906 286.804688 144.402344 Z M 286.804688 144.402344 " fill-opacity="1" fill-rule="evenodd"/><g clip-path="url(#e4ebcd3c9d)"><path fill="#000000" d="M 194.886719 16.890625 C 99.867188 16.890625 22.730469 94.09375 22.730469 189.191406 C 22.730469 284.285156 99.867188 361.488281 194.886719 361.488281 C 289.90625 361.488281 367.046875 284.285156 367.046875 189.191406 C 367.046875 94.09375 289.90625 16.890625 194.886719 16.890625 Z M 194.886719 34.414062 C 280.242188 34.414062 349.539062 103.765625 349.539062 189.191406 C 349.539062 274.613281 280.242188 343.964844 194.886719 343.964844 C 109.53125 343.964844 40.238281 274.613281 40.238281 189.191406 C 40.238281 103.765625 109.53125 34.414062 194.886719 34.414062 Z M 194.886719 34.414062 " fill-opacity="1" fill-rule="evenodd"/></g><path fill="#000000" d="M 290.257812 214.769531 C 288.25 212.796875 285.414062 211.898438 282.636719 212.375 C 279.859375 212.855469 277.488281 214.632812 276.253906 217.167969 C 268.46875 233.121094 254.835938 246.230469 237.863281 254.394531 C 235.296875 255.632812 233.5 258.039062 233.03125 260.855469 C 232.554688 263.667969 233.488281 266.53125 235.515625 268.539062 L 253.96875 286.714844 C 269.050781 301.585938 293.316406 301.398438 308.175781 286.308594 C 308.175781 286.296875 308.1875 286.296875 308.1875 286.285156 C 323.042969 271.191406 322.859375 246.90625 307.777344 232.035156 C 307.777344 232.035156 290.257812 214.769531 290.257812 214.769531 Z M 286.054688 235.214844 C 278.457031 246.707031 268.246094 256.625 256.140625 264.265625 L 266.25 274.242188 C 274.441406 282.3125 287.632812 282.207031 295.699219 274.007812 C 295.710938 274.007812 295.710938 273.996094 295.722656 273.996094 C 303.785156 265.796875 303.679688 252.59375 295.488281 244.523438 Z M 286.054688 235.214844 " fill-opacity="1" fill-rule="evenodd"/><path fill="#000000" d="M 281.234375 203.59375 C 272.46875 238.097656 237.933594 263.574219 197 263.574219 C 156.101562 263.574219 121.589844 238.132812 112.917969 203.640625 C 111.738281 198.953125 106.976562 196.105469 102.285156 197.285156 C 97.605469 198.464844 94.753906 203.230469 95.933594 207.925781 C 106.414062 249.605469 147.582031 281.097656 197 281.097656 C 246.441406 281.097656 287.609375 249.582031 298.207031 207.914062 C 299.398438 203.230469 296.5625 198.453125 291.878906 197.261719 C 287.199219 196.070312 282.425781 198.910156 281.234375 203.59375 Z M 281.234375 203.59375 " fill-opacity="1" fill-rule="evenodd"/></svg>